<svg width="148" height="48" viewBox="0 0 148 48" fill="none" xmlns="http://www.w3.org/2000/svg">
<path d="M0 28.0083H5.37514V8.58212L0 22.2204V28.0083Z" fill="white" fill-opacity="0.6"/>
<path d="M22.4688 28.0083H27.8439V22.2204L22.4688 8.58212V28.0083Z" fill="white" fill-opacity="0.6"/>
<path d="M78.023 12.1414L72.915 15.8669C72.7814 15.8004 72.6479 15.7339 72.5144 15.7006C74.3506 16.5655 75.853 17.3306 76.9881 17.9626C78.3903 18.7609 79.0914 19.8254 79.0914 21.0894C79.0914 22.0208 78.6908 22.7859 77.8895 23.3514C77.0882 23.9168 76.0199 24.2162 74.7178 24.2162C72.1137 24.2162 69.3093 22.9854 66.338 20.5239V25.7796C67.9405 26.7443 69.3761 27.4096 70.6447 27.7755C71.9134 28.1746 73.4492 28.3742 75.2186 28.3742C77.9563 28.3742 80.1597 27.6424 81.8958 26.1788C83.5985 24.7152 84.4665 22.8191 84.4665 20.4241C84.4665 18.5946 83.9657 17.0312 82.9642 15.7006C81.9292 14.4033 80.2933 13.2058 78.023 12.1414Z" fill="white" fill-opacity="0.6"/>
<path d="M13.9553 11.2432L4.84097 0.365898H0V22.2204L5.37514 8.58211H5.50869L13.5547 18.3285H14.2892L22.3352 8.58211H22.4688L27.8439 22.2204V0.365898H23.0697L13.9553 11.2432Z" fill="white"/>
<path d="M39.4288 28.0083V0.365898L34.087 28.0083H39.4288Z" fill="white" fill-opacity="0.6"/>
<path d="M56.2887 12.1414L51.1807 15.8669C51.1139 15.8337 51.0471 15.8004 50.9804 15.8004C52.7164 16.632 54.152 17.3638 55.2872 17.9626C56.6894 18.7609 57.3905 19.8254 57.3905 21.0894C57.3905 22.0208 56.9898 22.7859 56.1886 23.3514C55.3873 23.9168 54.319 24.2162 53.0169 24.2162C50.3794 24.2162 47.6084 22.9854 44.637 20.5239V25.7796C46.2396 26.7443 47.6752 27.4096 48.9438 27.7755C50.2125 28.1746 51.7482 28.3742 53.5177 28.3742C56.2553 28.3742 58.4588 27.6424 60.1949 26.1788C61.8976 24.7152 62.7656 22.8191 62.7656 20.4241C62.7656 18.5946 62.2648 17.0312 61.2632 15.7006C60.1949 14.4033 58.559 13.2058 56.2887 12.1414Z" fill="white" fill-opacity="0.6"/>
<path d="M114.247 8.61538C114.247 8.61538 107.636 21.3555 108.137 20.3908C108.404 19.8919 108.605 19.2599 108.705 18.5613C108.571 19.2599 108.371 19.8919 108.104 20.3908C107.57 21.422 106.735 22.2536 105.6 22.8524C104.465 23.4511 103.063 23.7505 101.427 23.7505C99.9242 23.7505 98.6222 23.4179 97.4871 22.7859C96.3519 22.1538 95.5507 21.3555 95.0499 20.3576C95.5507 21.3222 88.9069 8.58212 88.9069 8.58212V16.9647C88.9069 19.2931 89.4076 21.3222 90.4092 23.0187C91.4108 24.7484 92.8464 26.0457 94.716 26.9771C96.619 27.8753 98.8225 28.341 101.393 28.341C105.5 28.341 108.638 27.343 110.875 25.3472C113.112 23.3513 114.247 20.4906 114.247 16.7651V8.61538Z" fill="white" fill-opacity="0.6"/>
<path d="M108.738 18.3285C108.738 18.262 108.771 18.1954 108.771 18.1289C108.738 18.1954 108.738 18.262 108.738 18.3285Z" fill="white" fill-opacity="0.6"/>
<path d="M142.658 28.0083H148V22.2204L142.658 8.58212V28.0083Z" fill="white" fill-opacity="0.6"/>
<path d="M120.156 28.0083H125.531V8.58212L120.156 22.2204V28.0083Z" fill="white" fill-opacity="0.6"/>
<path d="M143.226 0.365898L134.111 11.2432L124.997 0.365898H120.156V22.2204L125.531 8.58211H125.698L133.711 18.3285H134.479L142.491 8.58211H142.658L148 22.2204V0.365898H143.226Z" fill="white"/>
<path d="M34.087 28.0083L39.4288 0.365898H34.087V28.0083Z" fill="white"/>
<path d="M72.8816 15.8669C72.8816 15.8669 77.9896 12.1746 77.9896 12.1414C76.9881 11.6757 73.783 10.1788 73.4158 9.91268C72.0136 9.01455 71.2791 8.0499 71.2791 7.01871C71.2791 6.15385 71.6463 5.4553 72.4142 4.92308C73.1821 4.39085 74.217 4.158 75.5858 4.158C77.8227 4.158 80.36 5.02287 83.2312 6.7526V2.02911C80.7607 0.665281 78.1566 0 75.4523 0C72.6145 0 70.3109 0.698545 68.5748 2.06237C66.8387 3.4262 65.9707 5.28898 65.9707 7.61746C65.9707 9.34719 66.5049 10.8773 67.5732 12.2079C67.6734 12.341 67.8403 12.5073 68.0072 12.7069C68.6416 13.4054 69.7433 14.3701 72.0136 15.4678C72.0469 15.4678 72.0469 15.501 72.0803 15.501C72.2139 15.5676 72.3474 15.6341 72.481 15.7006C72.6145 15.7339 72.748 15.8004 72.8816 15.8669Z" fill="white"/>
<path d="M56.2887 12.1414C55.2871 11.6757 52.0821 10.1788 51.7148 9.91268C50.3126 9.01455 49.5781 8.0499 49.5781 7.01871C49.5781 6.15385 49.9454 5.4553 50.7133 4.92308C51.4811 4.39085 52.5161 4.158 53.8849 4.158C56.1218 4.158 58.6591 5.02287 61.5303 6.7526V2.02911C59.0264 0.665281 56.4223 0 53.718 0C50.8802 0 48.5766 0.698545 46.8405 2.06237C45.1044 3.4262 44.2364 5.28898 44.2364 7.61746C44.2364 9.34719 44.7706 10.8773 45.8389 12.2079C46.4065 12.9064 47.5082 14.237 50.947 15.7672C51.0137 15.8004 51.0805 15.8337 51.1473 15.8337L56.2887 12.1414Z" fill="white"/>
<path d="M95.0498 20.3909C94.549 19.4262 94.3153 18.0956 94.3153 16.4657V0.365898H88.9402V8.61538C88.9068 8.61538 95.5506 21.3555 95.0498 20.3909Z" fill="white"/>
<path d="M114.247 8.61538V0.365898H108.905H108.872V16.4657C108.872 17.0644 108.838 17.6299 108.771 18.1622C108.771 18.2287 108.738 18.2952 108.738 18.3617C108.738 18.4283 108.705 18.5281 108.705 18.5946C108.571 19.2931 108.404 19.8919 108.137 20.4241C107.603 21.3555 114.247 8.61538 114.247 8.61538Z" fill="white"/>
<path d="M17.2272 45.4719H16.9267L14.9569 38.6195H16.1922L17.3941 43.2432L19.9648 38.6195H21.3336L17.2272 45.4719Z" fill="white"/>
<path d="M24.5721 42.1788C24.5387 42.3784 24.5053 42.5779 24.5053 42.7443C24.5053 43.3098 24.6722 43.7089 24.9727 44.0083C25.2732 44.3077 25.7072 44.4407 26.2748 44.4407C26.7755 44.4407 27.2763 44.2744 27.7771 43.9085L27.6436 45.1393C26.9759 45.3721 26.3749 45.4719 25.8741 45.4719C24.1381 45.4719 23.27 44.5073 23.27 42.5779C23.27 41.447 23.6373 40.4823 24.3718 39.684C25.1062 38.9189 26.0077 38.5197 27.1428 38.5197C27.8105 38.5197 28.3447 38.6528 28.7453 38.9522C29.1459 39.2515 29.3463 39.6507 29.3463 40.1829C29.3463 40.9147 29.0458 41.4802 28.4115 41.9127C27.7771 42.3451 27.0426 42.5447 26.1412 42.5447C25.5069 42.5114 25.0061 42.4116 24.5721 42.1788ZM24.7724 41.3139C25.1062 41.447 25.4735 41.5135 25.9075 41.5135C26.5752 41.5135 27.1094 41.4137 27.51 41.1809C27.9107 40.9813 28.1444 40.6486 28.1444 40.2495C28.1444 39.7505 27.7771 39.4844 27.076 39.4844C25.9743 39.5176 25.2064 40.1164 24.7724 41.3139Z" fill="white"/>
<path d="M36.8581 39.817C36.591 39.6174 36.3239 39.5177 35.9901 39.5177C35.5561 39.5177 35.1554 39.7172 34.7882 40.1164C34.3876 40.5156 34.1539 40.9813 34.0537 41.5135L33.3526 45.3721H32.1507L33.3526 38.6528H34.5545L34.3542 39.7172C34.9217 38.9189 35.6562 38.5197 36.5243 38.5197C36.6578 38.5197 36.8915 38.553 37.2254 38.6195L36.8581 39.817Z" fill="white"/>
<path d="M39.1951 44.9397L39.8295 43.8087C39.9964 43.975 40.2301 44.1081 40.5306 44.2412C40.831 44.3742 41.0981 44.4407 41.3318 44.4407C41.6991 44.4407 41.9995 44.341 42.2666 44.1414C42.5003 43.9418 42.6339 43.6757 42.6339 43.343C42.6339 43.1767 42.5671 43.0104 42.4336 42.8773C42.3 42.7443 42.0997 42.578 41.7658 42.4116L40.8644 41.9127C40.5973 41.7464 40.397 41.5468 40.2635 41.3139C40.1299 41.0811 40.0632 40.815 40.0632 40.5489C40.0632 39.9168 40.2969 39.4179 40.7977 39.052C41.2984 38.6861 41.866 38.4865 42.6005 38.4865C43.1013 38.4865 43.6688 38.6528 44.3699 38.9522L43.8358 40.0499C43.4351 39.684 42.9677 39.4844 42.5003 39.4844C42.1999 39.4844 41.8994 39.5509 41.6991 39.7173C41.4654 39.8836 41.3652 40.0832 41.3652 40.3493C41.3652 40.5489 41.432 40.7152 41.5655 40.8482C41.6991 40.9813 41.9328 41.1476 42.2332 41.3139L43.1013 41.7796C43.3684 41.9127 43.5687 42.1123 43.7022 42.3451C43.8358 42.578 43.9025 42.8108 43.9025 43.1102C43.9025 43.842 43.6355 44.4075 43.1347 44.8067C42.6005 45.2391 41.9328 45.4387 41.1315 45.4387C40.397 45.4719 39.7627 45.3056 39.1951 44.9397Z" fill="white"/>
<path d="M53.3174 39.052L52.4827 42.9439C52.4494 43.1102 52.416 43.3098 52.416 43.5093C52.416 44.1746 52.5161 44.7734 52.7164 45.3056H51.4812C51.4144 45.1725 51.3476 44.9397 51.2809 44.6403C51.0805 44.8732 50.7801 45.0728 50.4128 45.2058C50.0122 45.3389 49.6116 45.4387 49.1775 45.4387C48.5098 45.4387 48.009 45.2391 47.6418 44.8399C47.2745 44.4407 47.0742 43.8753 47.0742 43.1434C47.0742 41.9127 47.4415 40.815 48.176 39.8836C48.9104 38.9189 49.8453 38.4532 50.9804 38.4532C52.0487 38.5197 52.85 38.6861 53.3174 39.052ZM51.982 39.7505C51.8818 39.5842 51.4812 39.4844 50.8468 39.4844C50.1791 39.4844 49.6116 39.8503 49.1108 40.5489C48.61 41.2474 48.3429 42.1123 48.3429 43.1767C48.3429 44.0748 48.7435 44.5073 49.5448 44.5073C49.9454 44.5073 50.346 44.3077 50.7133 43.8753C51.0805 43.4428 51.3476 42.9106 51.4812 42.2453L51.982 39.7505Z" fill="white"/>
<path d="M57.5908 39.5842H56.8229L57.0233 38.6528H57.7911L58.0582 37.2557L59.427 36.7567L58.993 38.6861H60.8292L60.6289 39.6175H58.7927L58.0916 42.9439C58.0248 43.21 58.0248 43.4096 58.0248 43.5426C58.0248 44.1746 58.3587 44.5073 58.993 44.5073C59.2935 44.5073 59.6273 44.4407 59.9946 44.2744L59.9612 45.3056C59.6274 45.4387 59.0598 45.5052 58.2919 45.5052C57.8245 45.5052 57.4573 45.3721 57.1902 45.0728C56.9231 44.7734 56.7896 44.3742 56.7896 43.8752C56.7896 43.7422 56.8229 43.6091 56.8563 43.4428L57.5908 39.5842Z" fill="white"/>
<path d="M63.9008 45.3721L64.9357 39.6507H64.0343L64.268 38.6528H66.3379L65.136 45.3389H63.9008V45.3721ZM65.8371 36.0249C66.0709 36.0249 66.2712 36.0915 66.4381 36.2578C66.605 36.4241 66.6718 36.6237 66.6718 36.8565C66.6718 37.0894 66.605 37.289 66.4381 37.4553C66.2712 37.6216 66.0709 37.6881 65.8371 37.6881C65.6034 37.6881 65.4031 37.6216 65.2362 37.4553C65.0693 37.289 65.0025 37.0894 65.0025 36.8565C65.0025 36.6237 65.0693 36.4241 65.2362 36.2578C65.4031 36.0915 65.6034 36.0249 65.8371 36.0249Z" fill="white"/>
<path d="M71.9134 44.6071L71.7798 45.4719C70.4444 45.4719 69.7767 44.973 69.7767 43.975C69.7767 43.6757 69.8768 43.0104 70.0771 41.9792L71.279 35.8919H72.5143L71.3792 41.6133C71.1455 42.8108 71.0119 43.5426 71.0119 43.842C71.0119 44.3409 71.3124 44.6071 71.9134 44.6071Z" fill="white"/>
<path d="M76.7543 42.1788C76.7209 42.3784 76.6876 42.5779 76.6876 42.7443C76.6876 43.3098 76.8545 43.7089 77.155 44.0083C77.4554 44.3077 77.8894 44.4407 78.457 44.4407C78.9578 44.4407 79.4586 44.2744 79.9594 43.9085L79.8258 45.1393C79.1581 45.3721 78.5572 45.4719 78.0564 45.4719C76.3203 45.4719 75.4523 44.5073 75.4523 42.5779C75.4523 41.447 75.8195 40.4823 76.554 39.684C77.2885 38.9189 78.1899 38.5197 79.325 38.5197C79.9928 38.5197 80.5269 38.6528 80.9276 38.9522C81.3282 39.2515 81.5285 39.6507 81.5285 40.1829C81.5285 40.9147 81.228 41.4802 80.5937 41.9127C79.9594 42.3451 79.2249 42.5447 78.3235 42.5447C77.6891 42.5114 77.155 42.4116 76.7543 42.1788ZM76.9546 41.3139C77.2885 41.447 77.6557 41.5135 78.0898 41.5135C78.7575 41.5135 79.2917 41.4137 79.6923 41.1809C80.0929 40.9813 80.3266 40.6486 80.3266 40.2495C80.3266 39.7505 79.9594 39.4844 79.2583 39.4844C78.1565 39.5176 77.3887 40.1164 76.9546 41.3139Z" fill="white"/>
<path d="M93.8145 44.6071L93.681 45.4719C92.3456 45.4719 91.6779 44.973 91.6779 43.975C91.6779 43.6757 91.778 43.0104 91.9783 41.9792L93.1802 35.8919H94.4155L93.2804 41.6133C93.0467 42.8108 92.9131 43.5426 92.9131 43.842C92.9131 44.3409 93.2136 44.6071 93.8145 44.6071Z" fill="white"/>
<path d="M97.4871 45.3721L98.522 39.6507H97.6206L97.8543 38.6528H99.9242L98.7223 45.3389H97.4871V45.3721ZM99.4234 36.0249C99.6571 36.0249 99.8574 36.0915 100.024 36.2578C100.191 36.4241 100.258 36.6237 100.258 36.8565C100.258 37.0894 100.191 37.289 100.024 37.4553C99.8574 37.6216 99.6571 37.6881 99.4234 37.6881C99.1897 37.6881 98.9894 37.6216 98.8225 37.4553C98.6556 37.289 98.5888 37.0894 98.5888 36.8565C98.5888 36.6237 98.6556 36.4241 98.8225 36.2578C98.9894 36.0915 99.1897 36.0249 99.4234 36.0249Z" fill="white"/>
<path d="M105.533 45.4719H105.233L103.263 38.6195H104.498L105.7 43.2432L108.271 38.6195H109.639L105.533 45.4719Z" fill="white"/>
<path d="M112.31 45.3721L113.345 39.6507H112.444L112.678 38.6528H114.748L113.546 45.3389H112.31V45.3721ZM114.247 36.0249C114.481 36.0249 114.681 36.0915 114.848 36.2578C115.015 36.4241 115.081 36.6237 115.081 36.8565C115.081 37.0894 115.015 37.289 114.848 37.4553C114.681 37.6216 114.481 37.6881 114.247 37.6881C114.013 37.6881 113.813 37.6216 113.646 37.4553C113.479 37.289 113.412 37.0894 113.412 36.8565C113.412 36.6237 113.479 36.4241 113.646 36.2578C113.813 36.0915 114.013 36.0249 114.247 36.0249Z" fill="white"/>
<path d="M121.959 45.3721L122.66 41.4802C122.727 41.1476 122.76 40.8482 122.76 40.6154C122.76 39.9168 122.393 39.5509 121.658 39.5509C121.358 39.5509 121.058 39.6174 120.757 39.817C120.423 39.9834 120.156 40.1829 119.989 40.4158L119.121 45.4054H117.852L118.754 40.316C118.787 40.2162 118.787 40.0499 118.787 39.9168C118.787 39.4844 118.754 39.1185 118.654 38.8191L119.822 38.5863C119.922 39.185 119.989 39.5177 119.989 39.5842C120.49 38.9189 121.224 38.5863 122.193 38.5863C123.395 38.5863 124.029 39.2183 124.029 40.449C124.029 40.6819 123.995 40.9813 123.962 41.2806L123.228 45.4386H121.959V45.3721Z" fill="white"/>
<path d="M126.499 47.2349L127.067 46.37C127.835 46.7692 128.469 46.9355 128.97 46.9355C129.538 46.9355 129.972 46.8357 130.339 46.6362C130.706 46.4366 130.906 46.1372 130.906 45.7713C130.906 45.5717 130.84 45.4387 130.706 45.3056C130.573 45.1725 130.372 45.106 130.072 45.0395L128.97 44.8399C128.536 44.7401 128.302 44.5073 128.302 44.1414C128.302 43.8752 128.67 43.5759 129.371 43.3098H129.17C128.67 43.3098 128.236 43.1434 127.868 42.7775C127.501 42.4116 127.301 41.9792 127.301 41.447C127.301 40.5821 127.568 39.8503 128.135 39.2848C128.703 38.7193 129.437 38.4532 130.305 38.4532C130.94 38.4532 131.441 38.6195 131.808 38.9189L132.375 38.2869L133.043 38.9522L132.409 39.5842C132.542 39.7505 132.576 40.0166 132.576 40.3825C132.576 41.1143 132.409 41.7131 132.042 42.2453C131.674 42.7443 131.207 43.1102 130.606 43.3098C130.005 43.5093 129.738 43.7089 129.738 43.8752C129.738 44.0083 129.805 44.1081 129.972 44.1081C130.038 44.1081 130.105 44.1081 130.239 44.0748C130.339 44.0416 130.439 44.0416 130.506 44.0416C131.541 44.0416 132.075 44.5073 132.075 45.4719C132.075 46.2037 131.741 46.8025 131.073 47.2349C130.406 47.6673 129.638 47.9002 128.703 47.9002C127.835 48 127.067 47.7339 126.499 47.2349ZM130.239 39.4844C129.771 39.4844 129.337 39.684 129.037 40.0499C128.703 40.4158 128.536 40.8482 128.536 41.3804C128.536 42.2786 128.87 42.7443 129.571 42.7443C130.038 42.7443 130.439 42.5114 130.806 42.0457C131.174 41.58 131.34 41.1143 131.34 40.5821C131.34 40.2495 131.24 39.9834 131.04 39.7838C130.873 39.5842 130.606 39.4844 130.239 39.4844Z" fill="white"/>
</svg>
