<svg width="58" height="44" viewBox="0 0 58 44" fill="none" xmlns="http://www.w3.org/2000/svg">
<path d="M48 1C44.5 1 41.4 3 39.9 6H26.1C24.6 3 21.6 1 18 1C13 1 9 5 9 10C9 15 13 19 18 19C21.5 19 24.6 17 26.1 14H40C41.5 17 44.5 19 48.1 19C53.1 19 57.1 15 57.1 10C57 5 53 1 48 1Z" stroke="#6C146B" stroke-width="2" stroke-miterlimit="10" stroke-linecap="round" stroke-linejoin="round"/>
<path d="M40 25C36.5 25 33.4 27 31.9 30H18.1C16.6 27 13.6 25 10 25C5 25 1 29 1 34C1 39 5 43 10 43C13.5 43 16.6 41 18.1 38H32C33.5 41 36.5 43 40.1 43C45.1 43 49.1 39 49.1 34C49 29 45 25 40 25Z" stroke="#6C146B" stroke-width="2" stroke-miterlimit="10" stroke-linecap="round" stroke-linejoin="round"/>
</svg>
