<svg width="50" height="52" viewBox="0 0 50 52" fill="none" xmlns="http://www.w3.org/2000/svg">
<path d="M1 49.0002C1 42.1002 13 55.9002 13 49.0002C13 42.1002 25 55.9002 25 49.0002C25 42.1002 37 55.9002 37 49.0002C37 42.1002 49 55.9002 49 49.0002" stroke="#6C146B" stroke-width="2" stroke-miterlimit="10" stroke-linecap="round" stroke-linejoin="round"/>
<path d="M15 41V7C15 3.7 12.3 1 9 1C5.7 1 3 3.7 3 7V9" stroke="#6C146B" stroke-width="2" stroke-miterlimit="10"/>
<path d="M41 41V7C41 3.7 38.3 1 35 1C31.7 1 29 3.7 29 7V9" stroke="#6C146B" stroke-width="2" stroke-miterlimit="10"/>
<path d="M15 19H41" stroke="#6C146B" stroke-width="2" stroke-miterlimit="10"/>
<path d="M15 31H41" stroke="#6C146B" stroke-width="2" stroke-miterlimit="10"/>
</svg>
