<svg width="58" height="55" viewBox="0 0 58 55" fill="none" xmlns="http://www.w3.org/2000/svg">
<path d="M53 51H5C2.8 51 1 49.2 1 47V39C1 36.8 2.8 35 5 35H53C55.2 35 57 36.8 57 39V47C57 49.2 55.2 51 53 51Z" stroke="#6C146B" stroke-width="2" stroke-miterlimit="10" stroke-linecap="round" stroke-linejoin="round"/>
<path d="M51 55V51" stroke="#6C146B" stroke-width="2" stroke-miterlimit="10" stroke-linejoin="round"/>
<path d="M7 55V51" stroke="#6C146B" stroke-width="2" stroke-miterlimit="10" stroke-linejoin="round"/>
<path d="M49 43H45" stroke="#6C146B" stroke-width="2" stroke-miterlimit="10" stroke-linecap="round" stroke-linejoin="round"/>
<path d="M39 43H35" stroke="#6C146B" stroke-width="2" stroke-miterlimit="10" stroke-linecap="round" stroke-linejoin="round"/>
<path d="M13 43H9" stroke="#6C146B" stroke-width="2" stroke-miterlimit="10" stroke-linecap="round" stroke-linejoin="round"/>
<path d="M51 35L57 13" stroke="#6C146B" stroke-width="2" stroke-miterlimit="10" stroke-linecap="round" stroke-linejoin="round"/>
<path d="M7 35L1 13" stroke="#6C146B" stroke-width="2" stroke-miterlimit="10" stroke-linecap="round" stroke-linejoin="round"/>
<path d="M24.7998 26.8C25.8998 25.7 27.3998 25 28.9998 25C30.5998 25 32.1998 25.7 33.1998 26.8" stroke="#6C146B" stroke-width="2" stroke-miterlimit="10" stroke-linecap="round" stroke-linejoin="round"/>
<path d="M19.0996 21.1C21.5996 18.6 25.0996 17 28.9996 17C32.8996 17 36.3996 18.6 38.8996 21.1" stroke="#6C146B" stroke-width="2" stroke-miterlimit="10" stroke-linecap="round" stroke-linejoin="round"/>
<path d="M13.4004 15.4C17.4004 11.4 22.9004 9 29.0004 9C35.1004 9 40.6004 11.5 44.6004 15.4" stroke="#6C146B" stroke-width="2" stroke-miterlimit="10" stroke-linecap="round" stroke-linejoin="round"/>
<path d="M7.7998 9.8C13.1998 4.4 20.6998 1 28.9998 1C37.2998 1 44.7998 4.4 50.1998 9.8" stroke="#6C146B" stroke-width="2" stroke-miterlimit="10" stroke-linecap="round" stroke-linejoin="round"/>
</svg>
