<svg width="134" height="43" viewBox="0 0 134 43" fill="none" xmlns="http://www.w3.org/2000/svg">
<path d="M0 25.0908H4.86668V7.68814L0 19.9057V25.0908Z" fill="white" fill-opacity="0.6"/>
<path d="M20.3434 25.0908H25.21V19.9057L20.3434 7.68814V25.0908Z" fill="white" fill-opacity="0.6"/>
<path d="M70.6425 10.8766L66.0176 14.2141C65.8967 14.1545 65.7758 14.0949 65.6549 14.0651C67.3174 14.8399 68.6776 15.5253 69.7054 16.0915C70.975 16.8067 71.6097 17.7602 71.6097 18.8926C71.6097 19.727 71.247 20.4123 70.5215 20.9189C69.7961 21.4255 68.8288 21.6937 67.6499 21.6937C65.2921 21.6937 62.753 20.5911 60.0627 18.386V23.0942C61.5136 23.9584 62.8134 24.5544 63.9621 24.8822C65.1108 25.2398 66.5012 25.4186 68.1033 25.4186C70.582 25.4186 72.577 24.763 74.1489 23.4518C75.6905 22.1407 76.4764 20.4421 76.4764 18.2966C76.4764 16.6577 76.023 15.2571 75.1162 14.0651C74.1791 12.903 72.6979 11.8302 70.6425 10.8766Z" fill="white" fill-opacity="0.6"/>
<path d="M12.6352 10.0721L4.38304 0.327789H0V19.9058L4.86668 7.68815H4.98759L12.2725 16.4193H12.9375L20.2224 7.68815H20.3433L25.21 19.9058V0.327789H20.8874L12.6352 10.0721Z" fill="white"/>
<path d="M35.6991 25.0908V0.327789L30.8626 25.0908H35.6991Z" fill="white" fill-opacity="0.6"/>
<path d="M50.9641 10.8766L46.3393 14.2141C46.2788 14.1843 46.2184 14.1545 46.1579 14.1545C47.7297 14.8995 49.0295 15.5551 50.0573 16.0915C51.3269 16.8067 51.9616 17.7602 51.9616 18.8926C51.9616 19.727 51.5989 20.4123 50.8734 20.9189C50.148 21.4255 49.1807 21.6937 48.0018 21.6937C45.6138 21.6937 43.1049 20.5911 40.4146 18.386V23.0942C41.8655 23.9584 43.1653 24.5544 44.314 24.8822C45.4627 25.2398 46.8531 25.4186 48.4552 25.4186C50.9339 25.4186 52.9289 24.763 54.5008 23.4518C56.0424 22.1407 56.8283 20.4421 56.8283 18.2966C56.8283 16.6577 56.3749 15.2571 55.4681 14.0651C54.5008 12.903 53.0196 11.8302 50.9641 10.8766Z" fill="white" fill-opacity="0.6"/>
<path d="M103.44 7.71794C103.44 7.71794 97.4546 19.131 97.908 18.2668C98.1498 17.8198 98.3312 17.2536 98.4219 16.6279C98.3009 17.2536 98.1196 17.8198 97.8777 18.2668C97.3941 19.1906 96.6384 19.9355 95.6107 20.4719C94.5829 21.0083 93.3133 21.2765 91.8322 21.2765C90.4719 21.2765 89.293 20.9785 88.2653 20.4123C87.2375 19.8461 86.5121 19.131 86.0587 18.237C86.5121 19.1012 80.4967 7.68814 80.4967 7.68814V15.1975C80.4967 17.2834 80.9502 19.1012 81.857 20.6209C82.7638 22.1705 84.0636 23.3326 85.7564 24.167C87.4794 24.9716 89.4744 25.3888 91.802 25.3888C95.52 25.3888 98.3614 24.4948 100.387 22.7069C102.412 20.9189 103.44 18.3562 103.44 15.0187V7.71794Z" fill="white" fill-opacity="0.6"/>
<path d="M98.4521 16.4193C98.4521 16.3597 98.4823 16.3001 98.4823 16.2405C98.452 16.3001 98.4521 16.3597 98.4521 16.4193Z" fill="white" fill-opacity="0.6"/>
<path d="M129.164 25.0908H134V19.9057L129.164 7.68814V25.0908Z" fill="white" fill-opacity="0.6"/>
<path d="M108.79 25.0908H113.657V7.68814L108.79 19.9057V25.0908Z" fill="white" fill-opacity="0.6"/>
<path d="M129.677 0.327789L121.425 10.0721L113.173 0.327789H108.79V19.9058L113.657 7.68815H113.808L121.062 16.4193H121.758L129.012 7.68815H129.164L134 19.9058V0.327789H129.677Z" fill="white"/>
<path d="M30.8626 25.0908L35.6991 0.327789H30.8626V25.0908Z" fill="white"/>
<path d="M65.9874 14.2141C65.9874 14.2141 70.6122 10.9064 70.6122 10.8766C69.7054 10.4595 66.8035 9.1185 66.471 8.88011C65.2015 8.07554 64.5364 7.21137 64.5364 6.2876C64.5364 5.51282 64.8689 4.88704 65.5642 4.41026C66.2594 3.93347 67.1965 3.72488 68.4358 3.72488C70.4611 3.72488 72.7584 4.49965 75.358 6.0492V1.81774C73.1211 0.595981 70.7634 0 68.3149 0C65.7456 0 63.6598 0.62578 62.088 1.84754C60.5161 3.0693 59.7302 4.73805 59.7302 6.82398C59.7302 8.37353 60.2139 9.74428 61.1812 10.9362C61.2718 11.0554 61.423 11.2044 61.5741 11.3832C62.1484 12.009 63.146 12.8732 65.2015 13.8566C65.2317 13.8566 65.2317 13.8863 65.2619 13.8863C65.3828 13.9459 65.5037 14.0055 65.6246 14.0651C65.7456 14.0949 65.8665 14.1545 65.9874 14.2141Z" fill="white"/>
<path d="M50.9641 10.8766C50.0573 10.4595 47.1554 9.1185 46.8229 8.88011C45.5533 8.07554 44.8883 7.21137 44.8883 6.2876C44.8883 5.51282 45.2208 4.88704 45.9161 4.41026C46.6113 3.93347 47.5484 3.72488 48.7877 3.72488C50.813 3.72488 53.1103 4.49965 55.7099 6.0492V1.81774C53.4428 0.595981 51.085 0 48.6366 0C46.0672 0 43.9815 0.62578 42.4097 1.84754C40.8378 3.0693 40.0519 4.73805 40.0519 6.82398C40.0519 8.37353 40.5355 9.74428 41.5028 10.9362C42.0167 11.562 43.0142 12.754 46.1277 14.1247C46.1881 14.1545 46.2486 14.1843 46.309 14.1843L50.9641 10.8766Z" fill="white"/>
<path d="M86.0587 18.2668C85.6053 17.4026 85.3937 16.2107 85.3937 14.7505V0.327789H80.527V7.71795C80.4967 7.71795 86.5121 19.131 86.0587 18.2668Z" fill="white"/>
<path d="M103.44 7.71795V0.327789H98.6032H98.573V14.7505C98.573 15.2869 98.5427 15.7935 98.4823 16.2703C98.4823 16.3299 98.4521 16.3895 98.4521 16.4491C98.4521 16.5087 98.4218 16.5981 98.4218 16.6577C98.3009 17.2834 98.1498 17.8198 97.908 18.2966C97.4243 19.131 103.44 7.71795 103.44 7.71795Z" fill="white"/>
<path d="M15.5976 40.7352H15.3255L13.5421 34.5966H14.6605L15.7487 38.7387L18.0763 34.5966H19.3156L15.5976 40.7352Z" fill="white"/>
<path d="M22.2477 37.7852C22.2175 37.964 22.1872 38.1427 22.1872 38.2917C22.1872 38.7983 22.3384 39.1559 22.6104 39.4241C22.8825 39.6923 23.2754 39.8115 23.7893 39.8115C24.2427 39.8115 24.6962 39.6625 25.1496 39.3347L25.0287 40.4373C24.4241 40.6459 23.88 40.7353 23.4266 40.7353C21.8547 40.7353 21.0688 39.8711 21.0688 38.1427C21.0688 37.1296 21.4013 36.2654 22.0663 35.5502C22.7313 34.8649 23.5475 34.5073 24.5752 34.5073C25.1798 34.5073 25.6634 34.6265 26.0262 34.8946C26.3889 35.1628 26.5703 35.5204 26.5703 35.9972C26.5703 36.6528 26.2982 37.1594 25.7239 37.5468C25.1496 37.9342 24.4846 38.1129 23.6684 38.1129C23.0941 38.0831 22.6407 37.9938 22.2477 37.7852ZM22.4291 37.0104C22.7313 37.1296 23.0639 37.1892 23.4568 37.1892C24.0614 37.1892 24.545 37.0998 24.9078 36.8912C25.2705 36.7124 25.4821 36.4144 25.4821 36.0568C25.4821 35.6098 25.1496 35.3714 24.5148 35.3714C23.5173 35.4012 22.822 35.9376 22.4291 37.0104Z" fill="white"/>
<path d="M33.3715 35.6694C33.1297 35.4906 32.8879 35.4012 32.5856 35.4012C32.1926 35.4012 31.8299 35.58 31.4974 35.9376C31.1347 36.2952 30.9231 36.7124 30.8324 37.1892L30.1976 40.6459H29.1094L30.1976 34.6265H31.2858L31.1044 35.58C31.6183 34.8649 32.2833 34.5073 33.0693 34.5073C33.1902 34.5073 33.4018 34.5371 33.704 34.5967L33.3715 35.6694Z" fill="white"/>
<path d="M35.4875 40.2585L36.0618 39.2453C36.213 39.3943 36.4245 39.5135 36.6966 39.6327C36.9686 39.7519 37.2105 39.8115 37.4221 39.8115C37.7546 39.8115 38.0266 39.7221 38.2684 39.5433C38.48 39.3645 38.6009 39.1261 38.6009 38.8281C38.6009 38.6791 38.5405 38.5301 38.4196 38.411C38.2987 38.2918 38.1173 38.1428 37.815 37.9938L36.9989 37.5468C36.7571 37.3978 36.5757 37.219 36.4548 37.0104C36.3339 36.8018 36.2734 36.5634 36.2734 36.325C36.2734 35.7588 36.485 35.3119 36.9384 34.9841C37.3918 34.6563 37.9057 34.4775 38.5707 34.4775C39.0241 34.4775 39.538 34.6265 40.1728 34.8947L39.6892 35.878C39.3264 35.5502 38.9032 35.3714 38.48 35.3714C38.208 35.3714 37.9359 35.431 37.7546 35.58C37.543 35.729 37.4523 35.9078 37.4523 36.1462C37.4523 36.325 37.5127 36.474 37.6337 36.5932C37.7546 36.7124 37.9662 36.8614 38.2382 37.0104L39.0241 37.4276C39.266 37.5468 39.4473 37.7256 39.5682 37.9342C39.6891 38.1428 39.7496 38.3514 39.7496 38.6195C39.7496 39.2751 39.5078 39.7817 39.0544 40.1393C38.5707 40.5267 37.9662 40.7055 37.2407 40.7055C36.5757 40.7353 36.0014 40.5863 35.4875 40.2585Z" fill="white"/>
<path d="M48.2738 34.9841L47.5182 38.4705C47.4879 38.6195 47.4577 38.7983 47.4577 38.9771C47.4577 39.5731 47.5484 40.1095 47.7297 40.5863H46.6113C46.5509 40.4671 46.4904 40.2585 46.43 39.9903C46.2486 40.1989 45.9765 40.3777 45.644 40.4969C45.2813 40.6161 44.9186 40.7055 44.5256 40.7055C43.921 40.7055 43.4676 40.5267 43.1351 40.1691C42.8026 39.8115 42.6212 39.3049 42.6212 38.6493C42.6212 37.5468 42.9538 36.5634 43.6188 35.729C44.2838 34.8649 45.1302 34.4477 46.1579 34.4477C47.1252 34.5073 47.8507 34.6563 48.2738 34.9841ZM47.0647 35.6098C46.9741 35.4608 46.6113 35.3714 46.037 35.3714C45.4324 35.3714 44.9186 35.6992 44.4651 36.325C44.0117 36.9508 43.7699 37.7256 43.7699 38.6791C43.7699 39.4837 44.1326 39.8711 44.8581 39.8711C45.2208 39.8711 45.5836 39.6923 45.9161 39.3049C46.2486 38.9175 46.4904 38.4407 46.6113 37.8448L47.0647 35.6098Z" fill="white"/>
<path d="M52.143 35.4608H51.4478L51.6292 34.6265H52.3244L52.5662 33.3749L53.8056 32.9279L53.4126 34.6563H55.0751L54.8938 35.4906H53.2312L52.5965 38.4705C52.536 38.7089 52.536 38.8877 52.536 39.0069C52.536 39.5731 52.8383 39.8711 53.4126 39.8711C53.6847 39.8711 53.9869 39.8115 54.3194 39.6625L54.2892 40.5863C53.9869 40.7055 53.4731 40.7651 52.7778 40.7651C52.3546 40.7651 52.0221 40.6459 51.7803 40.3777C51.5385 40.1095 51.4176 39.7519 51.4176 39.3049C51.4176 39.1857 51.4478 39.0665 51.478 38.9175L52.143 35.4608Z" fill="white"/>
<path d="M57.8561 40.6459L58.7931 35.5204H57.977L58.1886 34.6265H60.0627L58.9745 40.6161H57.8561V40.6459ZM59.6093 32.2723C59.8209 32.2723 60.0023 32.3319 60.1534 32.4809C60.3045 32.6299 60.365 32.8087 60.365 33.0173C60.365 33.2259 60.3045 33.4047 60.1534 33.5537C60.0023 33.7027 59.8209 33.7623 59.6093 33.7623C59.3977 33.7623 59.2163 33.7027 59.0652 33.5537C58.9141 33.4047 58.8536 33.2259 58.8536 33.0173C58.8536 32.8087 58.9141 32.6299 59.0652 32.4809C59.2163 32.3319 59.3977 32.2723 59.6093 32.2723Z" fill="white"/>
<path d="M65.1108 39.9605L64.9899 40.7353C63.7808 40.7353 63.1762 40.2883 63.1762 39.3943C63.1762 39.1261 63.2669 38.5301 63.4483 37.6064L64.5365 32.1531H65.6549L64.6271 37.2786C64.4155 38.3513 64.2946 39.0069 64.2946 39.2751C64.2946 39.7221 64.5667 39.9605 65.1108 39.9605Z" fill="white"/>
<path d="M69.4938 37.7852C69.4636 37.964 69.4333 38.1427 69.4333 38.2917C69.4333 38.7983 69.5845 39.1559 69.8565 39.4241C70.1286 39.6923 70.5215 39.8115 71.0354 39.8115C71.4888 39.8115 71.9423 39.6625 72.3957 39.3347L72.2748 40.4373C71.6702 40.6459 71.1261 40.7353 70.6727 40.7353C69.1008 40.7353 68.3149 39.8711 68.3149 38.1427C68.3149 37.1296 68.6474 36.2654 69.3124 35.5502C69.9774 34.8649 70.7936 34.5073 71.8213 34.5073C72.4259 34.5073 72.9095 34.6265 73.2723 34.8946C73.635 35.1628 73.8164 35.5204 73.8164 35.9972C73.8164 36.6528 73.5443 37.1594 72.97 37.5468C72.3957 37.9342 71.7307 38.1129 70.9145 38.1129C70.3402 38.0831 69.8565 37.9938 69.4938 37.7852ZM69.6752 37.0104C69.9774 37.1296 70.3099 37.1892 70.7029 37.1892C71.3075 37.1892 71.7911 37.0998 72.1539 36.8912C72.5166 36.7124 72.7282 36.4144 72.7282 36.0568C72.7282 35.6098 72.3957 35.3714 71.7609 35.3714C70.7634 35.4012 70.0681 35.9376 69.6752 37.0104Z" fill="white"/>
<path d="M84.9402 39.9605L84.8193 40.7353C83.6102 40.7353 83.0057 40.2883 83.0057 39.3943C83.0057 39.1261 83.0964 38.5301 83.2777 37.6064L84.3659 32.1531H85.4843L84.4566 37.2786C84.245 38.3513 84.1241 39.0069 84.1241 39.2751C84.1241 39.7221 84.3961 39.9605 84.9402 39.9605Z" fill="white"/>
<path d="M88.2653 40.6459L89.2024 35.5204H88.3862L88.5978 34.6265H90.4719L89.3837 40.6161H88.2653V40.6459ZM90.0185 32.2723C90.2301 32.2723 90.4115 32.3319 90.5626 32.4809C90.7138 32.6299 90.7742 32.8087 90.7742 33.0173C90.7742 33.2259 90.7138 33.4047 90.5626 33.5537C90.4115 33.7027 90.2301 33.7623 90.0185 33.7623C89.8069 33.7623 89.6256 33.7027 89.4744 33.5537C89.3233 33.4047 89.2628 33.2259 89.2628 33.0173C89.2628 32.8087 89.3233 32.6299 89.4744 32.4809C89.6256 32.3319 89.8069 32.2723 90.0185 32.2723Z" fill="white"/>
<path d="M95.5502 40.7352H95.2781L93.4947 34.5966H94.6131L95.7013 38.7387L98.0289 34.5966H99.2682L95.5502 40.7352Z" fill="white"/>
<path d="M101.686 40.6459L102.624 35.5204H101.807L102.019 34.6265H103.893L102.805 40.6161H101.686V40.6459ZM103.44 32.2723C103.651 32.2723 103.833 32.3319 103.984 32.4809C104.135 32.6299 104.195 32.8087 104.195 33.0173C104.195 33.2259 104.135 33.4047 103.984 33.5537C103.833 33.7027 103.651 33.7623 103.44 33.7623C103.228 33.7623 103.047 33.7027 102.896 33.5537C102.744 33.4047 102.684 33.2259 102.684 33.0173C102.684 32.8087 102.744 32.6299 102.896 32.4809C103.047 32.3319 103.228 32.2723 103.44 32.2723Z" fill="white"/>
<path d="M110.422 40.6459L111.057 37.1594C111.118 36.8614 111.148 36.5932 111.148 36.3846C111.148 35.7588 110.815 35.431 110.15 35.431C109.878 35.431 109.606 35.4906 109.334 35.6694C109.032 35.8184 108.79 35.9972 108.639 36.2058L107.853 40.6757H106.704L107.52 36.1164C107.551 36.027 107.551 35.878 107.551 35.7588C107.551 35.3714 107.52 35.0436 107.43 34.7755L108.488 34.5669C108.578 35.1032 108.639 35.4012 108.639 35.4608C109.092 34.8649 109.757 34.5669 110.634 34.5669C111.722 34.5669 112.296 35.133 112.296 36.2356C112.296 36.4442 112.266 36.7124 112.236 36.9806L111.571 40.7055H110.422V40.6459Z" fill="white"/>
<path d="M114.533 42.3146L115.047 41.5398C115.742 41.8974 116.317 42.0464 116.77 42.0464C117.284 42.0464 117.677 41.957 118.01 41.7782C118.342 41.5994 118.523 41.3313 118.523 41.0035C118.523 40.8247 118.463 40.7055 118.342 40.5863C118.221 40.4671 118.04 40.4075 117.768 40.3479L116.77 40.1691C116.377 40.0797 116.166 39.8711 116.166 39.5433C116.166 39.3049 116.498 39.0367 117.133 38.7983H116.952C116.498 38.7983 116.105 38.6493 115.773 38.3215C115.44 37.9938 115.259 37.6064 115.259 37.1296C115.259 36.3548 115.501 35.6992 116.014 35.1926C116.528 34.6861 117.193 34.4477 117.979 34.4477C118.554 34.4477 119.007 34.5967 119.34 34.8649L119.853 34.2987L120.458 34.8947L119.884 35.4608C120.005 35.6098 120.035 35.8482 120.035 36.176C120.035 36.8316 119.884 37.368 119.551 37.8448C119.219 38.2917 118.795 38.6195 118.251 38.7983C117.707 38.9771 117.465 39.1559 117.465 39.3049C117.465 39.4241 117.526 39.5135 117.677 39.5135C117.737 39.5135 117.798 39.5135 117.919 39.4837C118.01 39.4539 118.1 39.4539 118.161 39.4539C119.098 39.4539 119.581 39.8711 119.581 40.7353C119.581 41.3908 119.279 41.9272 118.675 42.3146C118.07 42.702 117.375 42.9106 116.528 42.9106C115.742 43 115.047 42.7616 114.533 42.3146ZM117.919 35.3714C117.496 35.3714 117.103 35.5502 116.831 35.878C116.528 36.2058 116.377 36.5932 116.377 37.07C116.377 37.8746 116.679 38.2917 117.314 38.2917C117.737 38.2917 118.1 38.0832 118.433 37.666C118.765 37.2488 118.916 36.8316 118.916 36.3548C118.916 36.0568 118.826 35.8184 118.644 35.6396C118.493 35.4608 118.251 35.3714 117.919 35.3714Z" fill="white"/>
</svg>
