<svg width="14" height="18" viewBox="0 0 14 18" fill="none" xmlns="http://www.w3.org/2000/svg">
<path d="M6.74634 3.36963C4.88622 3.36963 3.37317 4.88306 3.37317 6.7428C3.37317 8.60255 4.88622 10.116 6.74634 10.116C8.60646 10.116 10.1195 8.60292 10.1195 6.7428C10.1195 4.88306 8.60646 3.36963 6.74634 3.36963ZM6.74634 8.61679C5.71303 8.61679 4.87236 7.77612 4.87236 6.7428C4.87236 5.70949 5.71303 4.86882 6.74634 4.86882C7.77966 4.86882 8.62033 5.70949 8.62033 6.7428C8.62033 7.77612 7.77966 8.61679 6.74634 8.61679Z" fill="#6C146B"/>
<path d="M6.74635 0C3.02649 0 0 3.02649 0 6.74635C0 10.2406 5.55112 16.6429 6.18378 17.3613L6.74635 18L7.30892 17.3613C7.94157 16.6429 13.4927 10.2406 13.4927 6.74635C13.4927 3.02649 10.4662 0 6.74635 0ZM6.74635 15.7134C4.88735 13.4908 1.49919 8.97789 1.49919 6.74635C1.49919 3.85291 3.85291 1.49919 6.74635 1.49919C9.63978 1.49919 11.9935 3.85291 11.9935 6.74635C11.9935 8.97789 8.60534 13.4908 6.74635 15.7134Z" fill="#6C146B"/>
</svg>
