<svg width="49" height="32" viewBox="0 0 49 32" fill="none" xmlns="http://www.w3.org/2000/svg">
<path d="M38 13L43 18L48 13" stroke="black" stroke-linecap="round"/>
<path d="M16 29.3332C23.3638 29.3332 29.3333 23.3636 29.3333 15.9998C29.3333 8.63604 23.3638 2.6665 16 2.6665C8.63619 2.6665 2.66666 8.63604 2.66666 15.9998C2.66666 23.3636 8.63619 29.3332 16 29.3332Z" stroke="black" stroke-linecap="round" stroke-linejoin="round"/>
<path d="M2.66666 16H29.3333" stroke="black" stroke-linecap="round" stroke-linejoin="round"/>
<path d="M16 2.6665C19.335 6.31764 21.2303 11.0559 21.3333 15.9998C21.2303 20.9438 19.335 25.682 16 29.3332C12.6649 25.682 10.7697 20.9438 10.6667 15.9998C10.7697 11.0559 12.6649 6.31764 16 2.6665V2.6665Z" stroke="black" stroke-linecap="round" stroke-linejoin="round"/>
</svg>
