<svg width="148" height="48" viewBox="0 0 148 48" fill="none" xmlns="http://www.w3.org/2000/svg">
<path d="M0 28.0082H5.37514V8.58203L0 22.2203V28.0082Z" fill="#6C146B"/>
<path d="M22.4688 28.0082H27.8439V22.2203L22.4688 8.58203V28.0082Z" fill="#6C146B"/>
<path d="M78.023 12.1416L72.9149 15.8672C72.7814 15.8006 72.6478 15.7341 72.5143 15.7009C74.3505 16.5657 75.8529 17.3308 76.988 17.9628C78.3902 18.7611 79.0913 19.8256 79.0913 21.0896C79.0913 22.021 78.6907 22.7861 77.8894 23.3516C77.0882 23.9171 76.0198 24.2164 74.7178 24.2164C72.1137 24.2164 69.3092 22.9857 66.3379 20.5241V25.7799C67.9404 26.7445 69.376 27.4098 70.6447 27.7757C71.9133 28.1749 73.4491 28.3745 75.2186 28.3745C77.9562 28.3745 80.1597 27.6426 81.8958 26.179C83.5984 24.7154 84.4665 22.8194 84.4665 20.4243C84.4665 18.5948 83.9657 17.0314 82.9641 15.7009C81.9291 14.4036 80.2932 13.2061 78.023 12.1416Z" fill="#6C146B"/>
<path d="M13.9553 11.2431L4.84097 0.365723H0V22.2202L5.37514 8.58194H5.50869L13.5547 18.3283H14.2892L22.3352 8.58194H22.4688L27.8439 22.2202V0.365723H23.0697L13.9553 11.2431Z" fill="#F15C22"/>
<path d="M39.4288 28.0081V0.365723L34.087 28.0081H39.4288Z" fill="#6C146B"/>
<path d="M56.2888 12.1416L51.1807 15.8672C51.114 15.8339 51.0472 15.8006 50.9804 15.8006C52.7165 16.6322 54.1521 17.3641 55.2872 17.9628C56.6894 18.7611 57.3905 19.8256 57.3905 21.0896C57.3905 22.021 56.9899 22.7861 56.1886 23.3516C55.3874 23.9171 54.319 24.2164 53.017 24.2164C50.3795 24.2164 47.6084 22.9857 44.6371 20.5241V25.7799C46.2396 26.7445 47.6752 27.4098 48.9439 27.7757C50.2125 28.1749 51.7483 28.3745 53.5178 28.3745C56.2554 28.3745 58.4589 27.6426 60.1949 26.179C61.8976 24.7154 62.7657 22.8194 62.7657 20.4243C62.7657 18.5948 62.2649 17.0314 61.2633 15.7009C60.1949 14.4036 58.559 13.2061 56.2888 12.1416Z" fill="#6C146B"/>
<path d="M114.247 8.6153C114.247 8.6153 107.636 21.3554 108.137 20.3908C108.404 19.8918 108.605 19.2598 108.705 18.5612C108.571 19.2598 108.371 19.8918 108.104 20.3908C107.57 21.422 106.735 22.2536 105.6 22.8523C104.465 23.4511 103.063 23.7504 101.427 23.7504C99.9242 23.7504 98.6222 23.4178 97.4871 22.7858C96.3519 22.1538 95.5507 21.3554 95.0499 20.3575C95.5507 21.3222 88.9069 8.58203 88.9069 8.58203V16.9646C88.9069 19.2931 89.4076 21.3222 90.4092 23.0186C91.4108 24.7484 92.8464 26.0457 94.716 26.977C96.619 27.8752 98.8225 28.3409 101.393 28.3409C105.5 28.3409 108.638 27.3429 110.875 25.3471C113.112 23.3513 114.247 20.4906 114.247 16.765V8.6153Z" fill="#6C146B"/>
<path d="M108.738 18.3285C108.738 18.262 108.772 18.1954 108.772 18.1289C108.738 18.1954 108.738 18.262 108.738 18.3285Z" fill="#6C146B"/>
<path d="M142.658 28.0082H148V22.2203L142.658 8.58203V28.0082Z" fill="#6C146B"/>
<path d="M120.156 28.0082H125.531V8.58203L120.156 22.2203V28.0082Z" fill="#6C146B"/>
<path d="M143.226 0.365723L134.111 11.2431L124.997 0.365723H120.156V22.2202L125.531 8.58194H125.698L133.711 18.3283H134.479L142.491 8.58194H142.658L148 22.2202V0.365723H143.226Z" fill="#F15C22"/>
<path d="M34.087 28.0081L39.4288 0.365723H34.087V28.0081Z" fill="#F15C22"/>
<path d="M72.8816 15.8669C72.8816 15.8669 77.9896 12.1746 77.9896 12.1414C76.9881 11.6757 73.783 10.1788 73.4158 9.91268C72.0136 9.01455 71.2791 8.0499 71.2791 7.01871C71.2791 6.15385 71.6463 5.4553 72.4142 4.92308C73.1821 4.39085 74.217 4.158 75.5858 4.158C77.8227 4.158 80.36 5.02287 83.2312 6.7526V2.02911C80.7607 0.665281 78.1566 0 75.4523 0C72.6145 0 70.3109 0.698545 68.5748 2.06237C66.8387 3.4262 65.9707 5.28898 65.9707 7.61746C65.9707 9.34719 66.5049 10.8773 67.5732 12.2079C67.6734 12.341 67.8403 12.5073 68.0072 12.7069C68.6416 13.4054 69.7433 14.3701 72.0136 15.4678C72.0469 15.4678 72.0469 15.501 72.0803 15.501C72.2139 15.5676 72.3474 15.6341 72.481 15.7006C72.6145 15.7339 72.748 15.8004 72.8816 15.8669Z" fill="#F15C22"/>
<path d="M56.2888 12.1414C55.2872 11.6757 52.0821 10.1788 51.7149 9.91268C50.3127 9.01455 49.5782 8.0499 49.5782 7.01871C49.5782 6.15385 49.9454 5.4553 50.7133 4.92308C51.4812 4.39085 52.5162 4.158 53.885 4.158C56.1219 4.158 58.6592 5.02287 61.5304 6.7526V2.02911C59.0264 0.665281 56.4223 0 53.7181 0C50.8803 0 48.5766 0.698545 46.8406 2.06237C45.1045 3.4262 44.2365 5.28898 44.2365 7.61746C44.2365 9.34719 44.7706 10.8773 45.839 12.2079C46.4065 12.9064 47.5083 14.237 50.947 15.7672C51.0138 15.8004 51.0806 15.8337 51.1473 15.8337L56.2888 12.1414Z" fill="#F15C22"/>
<path d="M95.0498 20.3907C94.549 19.426 94.3153 18.0955 94.3153 16.4655V0.365723H88.9402V8.6152C88.9068 8.6152 95.5506 21.3553 95.0498 20.3907Z" fill="#F15C22"/>
<path d="M114.247 8.6152V0.365723H108.905H108.872V16.4655C108.872 17.0643 108.838 17.6298 108.771 18.162C108.771 18.2285 108.738 18.295 108.738 18.3616C108.738 18.4281 108.705 18.5279 108.705 18.5944C108.571 19.293 108.404 19.8917 108.137 20.4239C107.603 21.3553 114.247 8.6152 114.247 8.6152Z" fill="#F15C22"/>
<path d="M17.2272 45.472H16.9267L14.9569 38.6196H16.1922L17.3941 43.2433L19.9648 38.6196H21.3336L17.2272 45.472Z" fill="#6D6E71"/>
<path d="M24.5721 42.1791C24.5387 42.3786 24.5053 42.5782 24.5053 42.7446C24.5053 43.31 24.6722 43.7092 24.9727 44.0086C25.2732 44.308 25.7072 44.441 26.2748 44.441C26.7755 44.441 27.2763 44.2747 27.7771 43.9088L27.6436 45.1396C26.9759 45.3724 26.3749 45.4722 25.8741 45.4722C24.1381 45.4722 23.27 44.5075 23.27 42.5782C23.27 41.4473 23.6373 40.4826 24.3718 39.6843C25.1062 38.9192 26.0077 38.52 27.1428 38.52C27.8105 38.52 28.3447 38.6531 28.7453 38.9525C29.1459 39.2518 29.3463 39.651 29.3463 40.1832C29.3463 40.915 29.0458 41.4805 28.4115 41.913C27.7771 42.3454 27.0426 42.545 26.1412 42.545C25.5069 42.5117 25.0061 42.4119 24.5721 42.1791ZM24.7724 41.3142C25.1062 41.4473 25.4735 41.5138 25.9075 41.5138C26.5752 41.5138 27.1094 41.414 27.51 41.1811C27.9107 40.9816 28.1444 40.6489 28.1444 40.2497C28.1444 39.7508 27.7771 39.4847 27.076 39.4847C25.9743 39.5179 25.2064 40.1167 24.7724 41.3142Z" fill="#6D6E71"/>
<path d="M36.8581 39.8173C36.591 39.6177 36.3239 39.5179 35.99 39.5179C35.556 39.5179 35.1554 39.7175 34.7881 40.1167C34.3875 40.5159 34.1538 40.9816 34.0536 41.5138L33.3525 45.3724H32.1506L33.3525 38.6531H34.5544L34.3541 39.7175C34.9217 38.9192 35.6562 38.52 36.5242 38.52C36.6577 38.52 36.8914 38.5533 37.2253 38.6198L36.8581 39.8173Z" fill="#6D6E71"/>
<path d="M39.1951 44.94L39.8294 43.8091C39.9963 43.9754 40.23 44.1084 40.5305 44.2415C40.831 44.3746 41.0981 44.4411 41.3318 44.4411C41.699 44.4411 41.9995 44.3413 42.2666 44.1417C42.5003 43.9421 42.6338 43.676 42.6338 43.3434C42.6338 43.1771 42.567 43.0107 42.4335 42.8777C42.3 42.7446 42.0996 42.5783 41.7658 42.412L40.8644 41.913C40.5973 41.7467 40.397 41.5471 40.2634 41.3143C40.1299 41.0814 40.0631 40.8153 40.0631 40.5492C40.0631 39.9172 40.2968 39.4182 40.7976 39.0523C41.2984 38.6864 41.8659 38.4868 42.6004 38.4868C43.1012 38.4868 43.6688 38.6531 44.3699 38.9525L43.8357 40.0502C43.4351 39.6843 42.9677 39.4847 42.5003 39.4847C42.1998 39.4847 41.8993 39.5513 41.699 39.7176C41.4653 39.8839 41.3652 40.0835 41.3652 40.3496C41.3652 40.5492 41.4319 40.7155 41.5655 40.8486C41.699 40.9816 41.9327 41.1479 42.2332 41.3143L43.1012 41.78C43.3683 41.913 43.5686 42.1126 43.7022 42.3454C43.8357 42.5783 43.9025 42.8111 43.9025 43.1105C43.9025 43.8423 43.6354 44.4078 43.1346 44.807C42.6004 45.2394 41.9327 45.439 41.1315 45.439C40.397 45.4723 39.7626 45.306 39.1951 44.94Z" fill="#6D6E71"/>
<path d="M53.3174 39.0524L52.4827 42.9443C52.4494 43.1106 52.416 43.3102 52.416 43.5097C52.416 44.175 52.5161 44.7738 52.7164 45.306H51.4812C51.4144 45.1729 51.3476 44.9401 51.2809 44.6407C51.0805 44.8736 50.7801 45.0732 50.4128 45.2062C50.0122 45.3393 49.6116 45.4391 49.1775 45.4391C48.5098 45.4391 48.009 45.2395 47.6418 44.8403C47.2745 44.4411 47.0742 43.8756 47.0742 43.1438C47.0742 41.9131 47.4415 40.8154 48.176 39.884C48.9104 38.9193 49.8453 38.4536 50.9804 38.4536C52.0487 38.5201 52.85 38.6865 53.3174 39.0524ZM51.982 39.7509C51.8818 39.5846 51.4812 39.4848 50.8468 39.4848C50.1791 39.4848 49.6116 39.8507 49.1108 40.5492C48.61 41.2478 48.3429 42.1127 48.3429 43.1771C48.3429 44.0752 48.7435 44.5077 49.5448 44.5077C49.9454 44.5077 50.346 44.3081 50.7133 43.8756C51.0805 43.4432 51.3476 42.911 51.4812 42.2457L51.982 39.7509Z" fill="#6D6E71"/>
<path d="M57.5908 39.5843H56.8229L57.0233 38.6529H57.7911L58.0582 37.2558L59.427 36.7568L58.993 38.6862H60.8292L60.6289 39.6175H58.7927L58.0916 42.9439C58.0248 43.2101 58.0248 43.4096 58.0248 43.5427C58.0248 44.1747 58.3587 44.5074 58.993 44.5074C59.2935 44.5074 59.6273 44.4408 59.9946 44.2745L59.9612 45.3057C59.6274 45.4387 59.0598 45.5053 58.2919 45.5053C57.8245 45.5053 57.4573 45.3722 57.1902 45.0728C56.9231 44.7735 56.7896 44.3743 56.7896 43.8753C56.7896 43.7423 56.8229 43.6092 56.8563 43.4429L57.5908 39.5843Z" fill="#6D6E71"/>
<path d="M63.9008 45.3726L64.9357 39.6512H64.0343L64.268 38.6532H66.3379L65.136 45.3393H63.9008V45.3726ZM65.8371 36.0254C66.0709 36.0254 66.2712 36.0919 66.4381 36.2582C66.605 36.4246 66.6718 36.6241 66.6718 36.857C66.6718 37.0898 66.605 37.2894 66.4381 37.4557C66.2712 37.6221 66.0709 37.6886 65.8371 37.6886C65.6034 37.6886 65.4031 37.6221 65.2362 37.4557C65.0693 37.2894 65.0025 37.0898 65.0025 36.857C65.0025 36.6241 65.0693 36.4246 65.2362 36.2582C65.4031 36.0919 65.6034 36.0254 65.8371 36.0254Z" fill="#6D6E71"/>
<path d="M71.9134 44.6073L71.7799 45.4721C70.4445 45.4721 69.7767 44.9732 69.7767 43.9752C69.7767 43.6759 69.8769 43.0106 70.0772 41.9794L71.2791 35.8921H72.5144L71.3793 41.6135C71.1456 42.811 71.012 43.5428 71.012 43.8422C71.012 44.3412 71.3125 44.6073 71.9134 44.6073Z" fill="#6D6E71"/>
<path d="M76.7543 42.1791C76.7209 42.3786 76.6876 42.5782 76.6876 42.7446C76.6876 43.31 76.8545 43.7092 77.155 44.0086C77.4554 44.308 77.8894 44.441 78.457 44.441C78.9578 44.441 79.4586 44.2747 79.9594 43.9088L79.8258 45.1396C79.1581 45.3724 78.5572 45.4722 78.0564 45.4722C76.3203 45.4722 75.4523 44.5075 75.4523 42.5782C75.4523 41.4473 75.8195 40.4826 76.554 39.6843C77.2885 38.9192 78.1899 38.52 79.325 38.52C79.9928 38.52 80.5269 38.6531 80.9276 38.9525C81.3282 39.2518 81.5285 39.651 81.5285 40.1832C81.5285 40.915 81.228 41.4805 80.5937 41.913C79.9594 42.3454 79.2249 42.545 78.3235 42.545C77.6891 42.5117 77.155 42.4119 76.7543 42.1791ZM76.9546 41.3142C77.2885 41.4473 77.6557 41.5138 78.0898 41.5138C78.7575 41.5138 79.2917 41.414 79.6923 41.1811C80.0929 40.9816 80.3266 40.6489 80.3266 40.2497C80.3266 39.7508 79.9594 39.4847 79.2583 39.4847C78.1565 39.5179 77.3887 40.1167 76.9546 41.3142Z" fill="#6D6E71"/>
<path d="M93.8145 44.6073L93.681 45.4721C92.3456 45.4721 91.6779 44.9732 91.6779 43.9752C91.6779 43.6759 91.778 43.0106 91.9783 41.9794L93.1802 35.8921H94.4155L93.2804 41.6135C93.0467 42.811 92.9131 43.5428 92.9131 43.8422C92.9131 44.3412 93.2136 44.6073 93.8145 44.6073Z" fill="#6D6E71"/>
<path d="M97.4871 45.3726L98.522 39.6512H97.6206L97.8543 38.6532H99.9242L98.7223 45.3393H97.4871V45.3726ZM99.4234 36.0254C99.6571 36.0254 99.8574 36.0919 100.024 36.2582C100.191 36.4246 100.258 36.6241 100.258 36.857C100.258 37.0898 100.191 37.2894 100.024 37.4557C99.8574 37.6221 99.6571 37.6886 99.4234 37.6886C99.1897 37.6886 98.9894 37.6221 98.8225 37.4557C98.6556 37.2894 98.5888 37.0898 98.5888 36.857C98.5888 36.6241 98.6556 36.4246 98.8225 36.2582C98.9894 36.0919 99.1897 36.0254 99.4234 36.0254Z" fill="#6D6E71"/>
<path d="M105.533 45.472H105.233L103.263 38.6196H104.498L105.7 43.2433L108.271 38.6196H109.64L105.533 45.472Z" fill="#6D6E71"/>
<path d="M112.31 45.3726L113.345 39.6512H112.444L112.678 38.6532H114.748L113.546 45.3393H112.31V45.3726ZM114.247 36.0254C114.481 36.0254 114.681 36.0919 114.848 36.2582C115.015 36.4246 115.081 36.6241 115.081 36.857C115.081 37.0898 115.015 37.2894 114.848 37.4557C114.681 37.6221 114.481 37.6886 114.247 37.6886C114.013 37.6886 113.813 37.6221 113.646 37.4557C113.479 37.2894 113.412 37.0898 113.412 36.857C113.412 36.6241 113.479 36.4246 113.646 36.2582C113.813 36.0919 114.013 36.0254 114.247 36.0254Z" fill="#6D6E71"/>
<path d="M121.959 45.3723L122.66 41.4804C122.727 41.1478 122.76 40.8484 122.76 40.6155C122.76 39.917 122.393 39.5511 121.659 39.5511C121.358 39.5511 121.058 39.6176 120.757 39.8172C120.423 39.9835 120.156 40.1831 119.989 40.4159L119.121 45.4055H117.853L118.754 40.3162C118.787 40.2164 118.787 40.05 118.787 39.917C118.787 39.4846 118.754 39.1186 118.654 38.8193L119.822 38.5864C119.922 39.1852 119.989 39.5178 119.989 39.5843C120.49 38.9191 121.225 38.5864 122.193 38.5864C123.395 38.5864 124.029 39.2184 124.029 40.4492C124.029 40.6821 123.996 40.9814 123.962 41.2808L123.228 45.4388H121.959V45.3723Z" fill="#6D6E71"/>
<path d="M126.499 47.2351L127.067 46.3703C127.835 46.7694 128.469 46.9358 128.97 46.9358C129.538 46.9358 129.972 46.836 130.339 46.6364C130.706 46.4368 130.906 46.1374 130.906 45.7715C130.906 45.5719 130.84 45.4389 130.706 45.3058C130.573 45.1728 130.372 45.1062 130.072 45.0397L128.97 44.8401C128.536 44.7403 128.302 44.5075 128.302 44.1416C128.302 43.8755 128.669 43.5761 129.371 43.31H129.17C128.669 43.31 128.235 43.1437 127.868 42.7778C127.501 42.4119 127.301 41.9794 127.301 41.4472C127.301 40.5823 127.568 39.8505 128.135 39.285C128.703 38.7195 129.437 38.4534 130.305 38.4534C130.94 38.4534 131.441 38.6198 131.808 38.9191L132.375 38.2871L133.043 38.9524L132.409 39.5844C132.542 39.7507 132.576 40.0168 132.576 40.3827C132.576 41.1146 132.409 41.7133 132.041 42.2455C131.674 42.7445 131.207 43.1104 130.606 43.31C130.005 43.5096 129.738 43.7091 129.738 43.8755C129.738 44.0085 129.805 44.1083 129.972 44.1083C130.038 44.1083 130.105 44.1083 130.239 44.0751C130.339 44.0418 130.439 44.0418 130.506 44.0418C131.541 44.0418 132.075 44.5075 132.075 45.4721C132.075 46.204 131.741 46.8027 131.073 47.2351C130.406 47.6676 129.638 47.9004 128.703 47.9004C127.835 48.0002 127.067 47.7341 126.499 47.2351ZM130.239 39.4846C129.771 39.4846 129.337 39.6842 129.037 40.0501C128.703 40.416 128.536 40.8484 128.536 41.3807C128.536 42.2788 128.87 42.7445 129.571 42.7445C130.038 42.7445 130.439 42.5116 130.806 42.0459C131.173 41.5803 131.34 41.1146 131.34 40.5823C131.34 40.2497 131.24 39.9836 131.04 39.784C130.873 39.5844 130.606 39.4846 130.239 39.4846Z" fill="#6D6E71"/>
</svg>
