<svg width="45" height="45" viewBox="0 0 45 45" fill="none" xmlns="http://www.w3.org/2000/svg">
<circle cx="22.5" cy="22.5" r="22.5" fill="#5F0569"/>
<path d="M30.6667 31.25V29.1667C30.6667 28.0616 30.2277 27.0018 29.4463 26.2204C28.6649 25.439 27.6051 25 26.5 25H18.1667C17.0616 25 16.0018 25.439 15.2204 26.2204C14.439 27.0018 14 28.0616 14 29.1667V31.25" stroke="white" stroke-width="2" stroke-linecap="round" stroke-linejoin="round"/>
<path d="M22.3332 20.8333C24.6344 20.8333 26.4999 18.9679 26.4999 16.6667C26.4999 14.3655 24.6344 12.5 22.3332 12.5C20.0321 12.5 18.1666 14.3655 18.1666 16.6667C18.1666 18.9679 20.0321 20.8333 22.3332 20.8333Z" stroke="white" stroke-width="2" stroke-linecap="round" stroke-linejoin="round"/>
</svg>
