<svg width="60" height="62" viewBox="0 0 60 62" fill="none" xmlns="http://www.w3.org/2000/svg">
<path d="M45.5283 47.8133H29.9311C29.4028 47.8133 28.9663 47.3736 28.9663 46.8413V35.0384H4.24962C1.90658 35.0384 0 33.1176 0 30.7338C0 28.3733 1.90658 26.4524 4.24962 26.4524H45.5283C46.0567 26.4524 46.4931 26.8921 46.4931 27.4244V46.8413C46.4931 47.3736 46.0567 47.8133 45.5283 47.8133ZM30.8959 45.8693H44.5635V28.3964H30.8959V45.8693ZM4.24962 28.3964C2.96325 28.3964 1.92956 29.4378 1.92956 30.7338C1.92956 32.0298 2.96325 33.0713 4.24962 33.0713H28.9433V28.3964H4.24962Z" fill="#6C146B"/>
<path d="M55.7504 35.0385H45.5283C45 35.0385 44.5635 34.5988 44.5635 34.0665C44.5635 33.5342 45 33.0945 45.5283 33.0945H55.7504C57.0367 33.0945 58.0704 32.053 58.0704 30.757C58.0704 29.461 57.0367 28.4196 55.7504 28.4196H45.5283C45 28.4196 44.5635 27.9799 44.5635 27.4476C44.5635 26.9153 45 26.4756 45.5283 26.4756H55.7504C58.0934 26.4756 60 28.3965 60 30.757C60 33.1176 58.0934 35.0385 55.7504 35.0385Z" fill="#6C146B"/>
<path d="M30 57.0244H17.297C12.3124 57.0244 8.24651 52.9281 8.24651 47.9061C8.24651 43.0923 6.56963 38.3943 3.5145 34.6683C3.16994 34.2517 3.23885 33.6268 3.65233 33.3028C4.0658 32.9557 4.68602 33.0251 5.00761 33.4417C8.33839 37.4917 10.199 42.6295 10.199 47.9061C10.199 51.8635 13.392 55.0572 17.297 55.0572H30C30.5283 55.0572 30.9647 55.4969 30.9647 56.0292C30.9647 56.5615 30.5283 57.0244 30 57.0244Z" fill="#6C146B"/>
<path d="M42.7029 57.0243H30C29.4717 57.0243 29.0352 56.5846 29.0352 56.0523C29.0352 55.52 29.4717 55.0803 30 55.0803H42.7029C46.6309 55.0803 49.8009 51.8635 49.8009 47.9291C49.8009 42.6526 51.6386 37.5148 54.9923 33.4417L56.4855 34.6914C53.4303 38.3942 51.7534 43.1154 51.7534 47.9291C51.7534 52.9512 47.6876 57.0243 42.7029 57.0243Z" fill="#6C146B"/>
<path d="M22.8101 62.0001H17.2971C16.7688 62.0001 16.3323 61.5604 16.3323 61.0281V56.0523C16.3323 55.52 16.7688 55.0803 17.2971 55.0803C17.8254 55.0803 18.2619 55.52 18.2619 56.0523V60.0329H21.8224V56.0523C21.8224 55.52 22.2588 55.0803 22.7872 55.0803C23.3155 55.0803 23.7519 55.52 23.7519 56.0523V61.0281C23.7749 61.5604 23.3385 62.0001 22.8101 62.0001Z" fill="#6C146B"/>
<path d="M42.8637 62.0001H37.3506C36.8223 62.0001 36.3859 61.5604 36.3859 61.0281V56.0523C36.3859 55.52 36.8223 55.0803 37.3506 55.0803C37.879 55.0803 38.3154 55.52 38.3154 56.0523V60.0329H41.8759V56.0523C41.8759 55.52 42.3124 55.0803 42.8407 55.0803C43.369 55.0803 43.8055 55.52 43.8055 56.0523V61.0281C43.8514 61.5604 43.415 62.0001 42.8637 62.0001Z" fill="#6C146B"/>
<path d="M45.5283 42.6986H29.9311C29.4028 42.6986 28.9663 42.2589 28.9663 41.7266C28.9663 41.1944 29.4028 40.7546 29.9311 40.7546H45.5283C46.0566 40.7546 46.4931 41.1944 46.4931 41.7266C46.4931 42.2589 46.0566 42.6986 45.5283 42.6986Z" fill="#6C146B"/>
<path d="M9.78558 28.3964C9.25725 28.3964 8.8208 27.9567 8.8208 27.4244V5.90146C8.8208 2.6383 11.4395 0 14.6784 0H17.9632C21.1791 0 23.7749 2.6383 23.7749 5.85517V7.79918C23.7749 8.33147 23.3384 8.77118 22.8101 8.77118C22.2817 8.77118 21.8453 8.33147 21.8453 7.79918V5.85517C21.8223 3.70287 20.0995 1.94401 17.9632 1.94401H14.6784C12.5191 1.94401 10.7504 3.72602 10.7504 5.90146V27.4244C10.7504 27.9567 10.3139 28.3964 9.78558 28.3964Z" fill="#6C146B"/>
<path d="M26.853 12.8675C26.3247 12.8675 25.8882 12.4277 25.8882 11.8955C25.8882 10.1829 24.51 8.7943 22.8101 8.7943C21.1332 8.7943 19.755 10.1829 19.755 11.8723C19.755 12.4046 19.3185 12.8443 18.7902 12.8443C18.2619 12.8443 17.8254 12.4046 17.8254 11.8723C17.8254 9.09516 20.0766 6.82715 22.8331 6.82715C25.5896 6.82715 27.8408 9.09516 27.8408 11.8723C27.8408 12.4277 27.4043 12.8675 26.853 12.8675Z" fill="#6C146B"/>
<path d="M25.5895 16.4083H20.0076C18.4456 16.4083 17.1822 15.1354 17.1822 13.5617C17.1822 11.988 18.4456 10.7151 20.0076 10.7151H25.5895C27.1516 10.7151 28.415 11.988 28.415 13.5617C28.415 15.1123 27.1516 16.4083 25.5895 16.4083ZM20.0076 12.6591C19.5252 12.6591 19.1117 13.0525 19.1117 13.5617C19.1117 14.0708 19.5022 14.4643 20.0076 14.4643H25.5895C26.0719 14.4643 26.4854 14.0708 26.4854 13.5617C26.4854 13.0525 26.0949 12.6591 25.5895 12.6591H20.0076Z" fill="#6C146B"/>
</svg>
