<svg width="48" height="63" viewBox="0 0 48 63" fill="none" xmlns="http://www.w3.org/2000/svg">
<path d="M47.0294 62.9999H0.970631C0.439095 62.9999 0 62.5425 0 61.9888V55.4649C0 54.9113 0.439095 54.4539 0.970631 54.4539H47.0063C47.5378 54.4539 47.9769 54.9113 47.9769 55.4649V61.9888C48 62.5425 47.5609 62.9999 47.0294 62.9999ZM1.94126 60.9537H46.0356V56.4519H1.94126V60.9537Z" fill="#6C146B"/>
<path d="M39.6341 56.4521H8.20415C7.67262 56.4521 7.23352 55.9947 7.23352 55.441V9.00351C7.23352 8.44983 7.67262 7.99243 8.20415 7.99243H39.6341C40.1656 7.99243 40.6047 8.44983 40.6047 9.00351V55.441C40.6278 55.9947 40.1887 56.4521 39.6341 56.4521ZM9.17478 54.43H38.6635V10.0387H9.17478V54.43Z" fill="#6C146B"/>
<path d="M34.6192 10.0386H13.3577C12.8262 10.0386 12.3871 9.5812 12.3871 9.02751V1.01108C12.3871 0.457394 12.8262 0 13.3577 0H34.6192C35.1507 0 35.5898 0.457394 35.5898 1.01108V9.00344C35.6129 9.5812 35.1738 10.0386 34.6192 10.0386ZM14.3515 7.99236H33.6485V2.02216H14.3515V7.99236Z" fill="#6C146B"/>
<path d="M31.3837 56.4521H16.4776C15.9461 56.4521 15.507 55.9947 15.507 55.441V38.1563C15.507 37.6027 15.9461 37.1453 16.4776 37.1453H31.3837C31.9152 37.1453 32.3543 37.6027 32.3543 38.1563V55.441C32.3543 55.9947 31.9152 56.4521 31.3837 56.4521ZM17.4482 54.4299H30.4131V39.1915H17.4482V54.4299Z" fill="#6C146B"/>
<path d="M19.4357 33.7029H13.4964C12.9649 33.7029 12.5258 33.2455 12.5258 32.6918V26.505C12.5258 25.9513 12.9649 25.4939 13.4964 25.4939H19.4357C19.9673 25.4939 20.4064 25.9513 20.4064 26.505V32.6918C20.4295 33.2455 19.9904 33.7029 19.4357 33.7029ZM14.467 31.6807H18.4651V27.5161H14.467V31.6807Z" fill="#6C146B"/>
<path d="M19.4357 21.8587H13.4964C12.9649 21.8587 12.5258 21.4013 12.5258 20.8476V14.6607C12.5258 14.1071 12.9649 13.6497 13.4964 13.6497H19.4357C19.9673 13.6497 20.4064 14.1071 20.4064 14.6607V20.8476C20.4295 21.4254 19.9904 21.8587 19.4357 21.8587ZM14.467 19.8365H18.4651V15.6718H14.467V19.8365Z" fill="#6C146B"/>
<path d="M34.4112 33.7029H28.4719C27.9403 33.7029 27.5012 33.2455 27.5012 32.6918V26.505C27.5012 25.9513 27.9403 25.4939 28.4719 25.4939H34.4112C34.9427 25.4939 35.3818 25.9513 35.3818 26.505V32.6918C35.3818 33.2455 34.9427 33.7029 34.4112 33.7029ZM29.4425 31.6807H33.4406V27.5161H29.4425V31.6807Z" fill="#6C146B"/>
<path d="M34.4112 21.8587H28.4719C27.9403 21.8587 27.5012 21.4013 27.5012 20.8476V14.6607C27.5012 14.1071 27.9403 13.6497 28.4719 13.6497H34.4112C34.9427 13.6497 35.3818 14.1071 35.3818 14.6607V20.8476C35.3818 21.4254 34.9427 21.8587 34.4112 21.8587ZM29.4425 19.8365H33.4406V15.6718H29.4425V19.8365Z" fill="#6C146B"/>
</svg>
