<svg width="52" height="62" viewBox="0 0 52 62" fill="none" xmlns="http://www.w3.org/2000/svg">
<path d="M51.0162 62.0002H0.983784C0.445045 62.0002 0 61.5399 0 60.9826V54.1987C0 53.6415 0.445045 53.1812 0.983784 53.1812H51.0162C51.555 53.1812 52 53.6415 52 54.1987V60.9826C52 61.5399 51.555 62.0002 51.0162 62.0002ZM1.96757 59.965H50.009V55.2163H1.96757V59.965Z" fill="#6C146B"/>
<path d="M51.0162 31.2788H0.983784C0.445045 31.2788 0 30.8185 0 30.2612V23.4773C0 22.9201 0.445045 22.4597 0.983784 22.4597H51.0162C51.555 22.4597 52 22.9201 52 23.4773V30.2612C52 30.8185 51.555 31.2788 51.0162 31.2788ZM1.96757 29.2436H50.009V24.4949H1.96757V29.2436Z" fill="#6C146B"/>
<path d="M48.0883 55.2162H3.74776C3.20902 55.2162 2.76398 54.7559 2.76398 54.1986V30.2854C2.76398 29.7282 3.20902 29.2678 3.74776 29.2678H48.1117C48.6505 29.2678 49.0955 29.7282 49.0955 30.2854V54.1986C49.0955 54.7559 48.6505 55.2162 48.0883 55.2162ZM4.73154 53.1568H47.1045V31.2788H4.73154V53.1568Z" fill="#6C146B"/>
<path d="M27.9207 51.8003H24.0793C23.5405 51.8003 23.0955 51.3399 23.0955 50.7827V42.3755C23.0955 41.8182 23.5405 41.3579 24.0793 41.3579H27.9207C28.4594 41.3579 28.9045 41.8182 28.9045 42.3755V50.7827C28.9045 51.3399 28.4829 51.8003 27.9207 51.8003ZM25.0631 49.7651H26.9369V43.3931H25.0631V49.7651Z" fill="#6C146B"/>
<path d="M25.9297 40.1705C23.9153 40.1705 22.2757 38.4746 22.2757 36.3909C22.2757 34.3073 23.9153 32.6113 25.9297 32.6113C27.9442 32.6113 29.5838 34.3073 29.5838 36.3909C29.5838 38.4746 27.9442 40.1705 25.9297 40.1705ZM25.9297 34.6465C25.0162 34.6465 24.2433 35.4218 24.2433 36.3909C24.2433 37.3358 24.9928 38.1354 25.9297 38.1354C26.8433 38.1354 27.6162 37.3601 27.6162 36.3909C27.5928 35.446 26.8433 34.6465 25.9297 34.6465Z" fill="#6C146B"/>
<path d="M20.9171 24.4947H8.64327C6.81624 24.4947 5.31714 22.9441 5.31714 21.0543V12.6955C5.31714 10.8057 6.81624 9.25513 8.64327 9.25513H20.9171C22.7442 9.25513 24.2433 10.8057 24.2433 12.6955V21.0543C24.2433 22.9441 22.7442 24.4947 20.9171 24.4947ZM8.64327 11.2903C7.89372 11.2903 7.28471 11.9202 7.28471 12.6955V21.0543C7.28471 21.8296 7.89372 22.4595 8.64327 22.4595H20.9171C21.6667 22.4595 22.2757 21.8296 22.2757 21.0543V12.6955C22.2757 11.9202 21.6667 11.2903 20.9171 11.2903H8.64327Z" fill="#6C146B"/>
<path d="M42.982 24.4947H29.654C29.1153 24.4947 28.6703 24.0344 28.6703 23.4771V18.0742C28.6703 13.7132 32.0901 10.1516 36.3297 10.1516C40.5459 10.1516 43.9892 13.6889 43.9892 18.0742V23.4771C43.9892 24.0344 43.5441 24.4947 42.982 24.4947ZM30.6612 22.4353H41.9982V18.0742C41.9982 14.8519 39.445 12.211 36.3297 12.211C33.2144 12.211 30.6612 14.8519 30.6612 18.0742V22.4353Z" fill="#6C146B"/>
<path d="M36.3297 12.211C33.0739 12.211 30.427 9.47323 30.427 6.10551C30.427 2.73779 33.0739 0 36.3297 0C39.5856 0 42.2324 2.73779 42.2324 6.10551C42.2324 9.47323 39.5856 12.211 36.3297 12.211ZM36.3297 2.03517C34.1748 2.03517 32.3946 3.85229 32.3946 6.10551C32.3946 8.35874 34.1513 10.1759 36.3297 10.1759C38.4847 10.1759 40.2648 8.35874 40.2648 6.10551C40.2648 3.85229 38.4847 2.03517 36.3297 2.03517Z" fill="#6C146B"/>
</svg>
